<svg width="28" height="28" viewBox="0 0 28 28" fill="none" xmlns="http://www.w3.org/2000/svg">
<rect width="28" height="28" rx="14" fill="white" fill-opacity="0.06"/>
<rect x="0.5" y="0.5" width="27" height="27" rx="13.5" stroke="white" stroke-opacity="0.04"/>
<path d="M9.34742 18.4277C9.76343 18.8378 10.4841 18.8203 10.865 18.4394L13.9998 15.3046L17.1228 18.4335C17.5271 18.8378 18.2244 18.8378 18.6345 18.4218C19.0505 18.0058 19.0564 17.3085 18.6521 16.9042L15.5291 13.7753L18.6521 10.6523C19.0564 10.248 19.0505 9.55072 18.6345 9.14057C18.2185 8.72455 17.5271 8.71869 17.1228 9.12299L13.9998 12.246L10.865 9.11713C10.4841 8.73627 9.76343 8.71869 9.34742 9.13471C8.93726 9.55072 8.94898 10.2656 9.3357 10.6464L12.4705 13.7753L9.3357 16.9101C8.94898 17.291 8.9314 18.0117 9.34742 18.4277Z" fill="#E0E8FF" fill-opacity="0.6"/>
</svg>
