<svg width="57" height="57" viewBox="0 0 57 57" fill="none" xmlns="http://www.w3.org/2000/svg">
<rect x="26.8026" y="0.706138" width="39" height="39" rx="12.5" transform="rotate(42 26.8026 0.706138)" fill="#202754" fill-opacity="0.8"/>
<rect x="26.8026" y="0.706138" width="39" height="39" rx="12.5" transform="rotate(42 26.8026 0.706138)" stroke="url(#paint0_linear_18_4264)"/>
<path d="M23.485 25.8672C23.4909 25.1206 23.0405 24.7437 22.1339 24.7365C21.5739 24.732 20.953 24.8471 20.2711 25.0817C19.6027 25.3031 19.0675 25.5322 18.6656 25.769L18.0829 26.1044L18.6456 23.2488C19.1678 22.9729 19.7964 22.7312 20.5314 22.5237C21.2665 22.3029 21.9141 22.1947 22.474 22.1991C23.6073 22.2081 24.5116 22.5086 25.187 23.1007C25.8757 23.6795 26.2163 24.4489 26.2087 25.4088C26.1984 26.7021 25.5078 28.0434 24.1367 29.4325L20.6283 33.0048L26.8709 32.6943L26.5098 35.3515L22.3514 35.1385L17.6304 35.2411L17.9671 33.1437L22.2053 28.3372C23.0528 27.3972 23.4794 26.5739 23.485 25.8672ZM36.3248 35.4894L33.026 30.2831L29.7649 35.4574L27.6133 34.3803L31.6008 28.4117L27.4041 22.9382L29.8969 21.338L33.0771 26.3633L36.2173 21.3081L38.3074 22.5647L34.6023 28.2355L38.7971 33.949L36.3248 35.4894Z" fill="url(#paint1_linear_18_4264)"/>
<defs>
<linearGradient id="paint0_linear_18_4264" x1="29.5427" y1="4.2277" x2="64.299" y2="36.8506" gradientUnits="userSpaceOnUse">
<stop stop-color="#B94D0A"/>
<stop offset="1" stop-color="#E2CD4B"/>
</linearGradient>
<linearGradient id="paint1_linear_18_4264" x1="28.3414" y1="16.2455" x2="28.1511" y2="40.2447" gradientUnits="userSpaceOnUse">
<stop stop-color="#B94D0A"/>
<stop offset="1" stop-color="#E2CD4B"/>
</linearGradient>
</defs>
</svg>
