<svg width="57" height="57" viewBox="0 0 57 57" fill="none" xmlns="http://www.w3.org/2000/svg">
<rect x="26.8026" y="1.19735" width="39" height="39" rx="12.5" transform="rotate(42 26.8026 1.19735)" fill="#202754" fill-opacity="0.8"/>
<rect x="26.8026" y="1.19735" width="39" height="39" rx="12.5" transform="rotate(42 26.8026 1.19735)" stroke="url(#paint0_linear_182_567)"/>
<path d="M23.994 22.7032L23.6322 30.5006L23.8309 35.7023L21.031 35.6801L21.3095 30.8222L21.189 25.8411L18.389 25.8389L18.3993 24.5389L23.994 22.7032ZM34.9226 35.9703L31.6238 30.764L28.3626 35.9383L26.2111 34.8612L30.1986 28.8926L26.0018 23.4192L28.4946 21.8189L31.6748 26.8443L34.815 21.789L36.9051 23.0457L33.2 28.7164L37.3949 34.4299L34.9226 35.9703Z" fill="url(#paint1_linear_182_567)"/>
<defs>
<linearGradient id="paint0_linear_182_567" x1="31.3694" y1="3.75876" x2="62.484" y2="38.315" gradientUnits="userSpaceOnUse">
<stop stop-color="#223D70"/>
<stop offset="0.486644" stop-color="#4089A9"/>
<stop offset="1" stop-color="#60D9E6"/>
</linearGradient>
<linearGradient id="paint1_linear_182_567" x1="28.3415" y1="16.7375" x2="28.1511" y2="40.7368" gradientUnits="userSpaceOnUse">
<stop stop-color="#223F71"/>
<stop offset="1" stop-color="#5ED4E2"/>
</linearGradient>
</defs>
</svg>
