<svg width="210" height="454" viewBox="0 0 210 454" fill="none" xmlns="http://www.w3.org/2000/svg">
<path d="M180.955 3.77653L177.722 9.96648L181 16.1341L174.109 14.9721L169.27 20L168.244 13.095L162 10.0112L168.222 6.90503L169.203 0L174.087 4.98324L180.955 3.77653Z" fill="#FFAC33"/>
<path d="M208.735 445.641L207.775 448.72L210 451.178L206.487 451.285L204.59 454L203.396 450.986L200 450.173L202.763 448.207L202.553 445L205.457 446.796L208.735 445.641Z" fill="white"/>
<path d="M85.3764 310.665L82.8356 316.086L86 321.17L79.9022 320.52L75.8832 325L74.6359 319.177L69 316.847L74.3356 313.913L74.8668 308L79.394 312.009L85.3764 310.665Z" fill="url(#paint0_linear_1_166)"/>
<path d="M73.8228 155L78.0085 163.096L87 164.23L80.6218 170.725L82.3271 179.689L74.2215 175.596L66.2487 180L67.6218 170.97L61 164.742L69.9693 163.252L73.8228 155Z" fill="#FFAC33"/>
<path d="M19.1235 265.485L20.5309 265.719L21.5926 265L21.7407 266.042L23 266.563L21.6667 266.976L21.3951 268L20.4321 267.21L19 267.353L19.7407 266.437L19.1235 265.485Z" fill="white"/>
<path d="M181 63.8445L178.798 67.7703L180.64 71.8843L176.393 70.8969L173.225 74L172.798 69.4864L169 67.2767L172.978 65.4665L173.809 61L176.685 64.3852L181 63.8445Z" fill="url(#paint1_linear_1_166)"/>
<defs>
<linearGradient id="paint0_linear_1_166" x1="77.5" y1="308" x2="77.5" y2="325" gradientUnits="userSpaceOnUse">
<stop stop-color="#3E58FF"/>
<stop offset="1" stop-color="#5E73FE"/>
</linearGradient>
<linearGradient id="paint1_linear_1_166" x1="175" y1="61" x2="175" y2="74" gradientUnits="userSpaceOnUse">
<stop stop-color="#3E58FF"/>
<stop offset="1" stop-color="#5E73FE"/>
</linearGradient>
</defs>
</svg>
