<svg width="131" height="399" viewBox="0 0 131 399" fill="none" xmlns="http://www.w3.org/2000/svg">
<path d="M16.2787 0L17.5633 8.21438L25.0879 11.8287L17.6367 15.5708L16.4989 23.8217L10.6078 17.9256L2.38584 19.4042L6.20315 11.993L2.23901 4.67307L10.4976 6.00563L16.2787 0Z" fill="#4B63FE"/>
<path d="M30.2815 63.2872L32.2086 67.8325L37.072 68.8365L33.3097 72.0675L33.8603 76.9779L29.6025 74.4223L25.0878 76.4485L26.2073 71.6294L22.8855 67.9786L27.8223 67.577L30.2815 63.2872Z" fill="#4B63FE"/>
<path d="M87.5045 120.35L88.6424 120.879L89.7252 120.258L89.56 121.5L90.5143 122.321L89.2664 122.558L88.7709 123.708L88.1652 122.613L86.9172 122.485L87.7615 121.573L87.5045 120.35Z" fill="#FFAC33"/>
<path d="M52.1394 196.105L51.2585 197.529L51.9192 199.08L50.2858 198.66L49.0195 199.792L48.9094 198.113L47.4412 197.255L49.0195 196.634L49.3682 194.991L50.4693 196.269L52.1394 196.105Z" fill="#FFAC33"/>
<path d="M125.971 200.322L127.99 201.964L130.486 201.234L129.532 203.644L131 205.78L128.412 205.634L126.816 207.678L126.155 205.177L123.714 204.301L125.898 202.914L125.971 200.322Z" fill="#FFAC33"/>
<path d="M98.3326 264.302L97.0296 265.635L97.3783 267.478L95.6898 266.639L94.0565 267.533L94.3318 265.689L92.9553 264.412L94.8089 264.119L95.5981 262.422L96.479 264.083L98.3326 264.302Z" fill="#FFAC33"/>
<path d="M68.3998 257.877L68.932 260.487L71.3912 261.528L69.0604 262.842L68.8218 265.489L66.8582 263.7L64.2337 264.284L65.3532 261.856L63.9768 259.574L66.6379 259.885L68.3998 257.877Z" fill="#FFAC33"/>
<path d="M88.6445 336.036L92.6454 343.338L100.977 344.214L95.2147 350.256L96.9582 358.416L89.397 354.838L82.1477 359L83.2305 350.731L77.009 345.163L85.2493 343.63L88.6445 336.036Z" fill="#FFAC33"/>
<path d="M8.69909 355.646L12.3145 361.214L18.9765 361.415L14.7554 366.562L16.6457 372.915L10.4242 370.542L4.91848 374.266L5.26718 367.639L0 363.587L6.44174 361.889L8.69909 355.646Z" fill="#FFAC33"/>
</svg>
